<svg width="326" height="66" viewBox="0 0 326 66" fill="none" xmlns="http://www.w3.org/2000/svg">
<g filter="url(#filter0_dii_6_14)">
<path d="M51.751 12.8775C49.9759 8.4398 46.6703 4.7845 42.4328 2.57363L40.7607 1.70123C38.6186 0.583626 36.2383 0 33.8222 0H22.2195C20.0973 0 17.9993 0.450309 16.0641 1.32118L15.8787 1.40459C11.4453 3.39961 7.89039 6.94114 5.87866 11.367L5.0756 13.1337C4.36675 14.6931 4 16.3863 4 18.0993V31.4007C4 33.1137 4.36675 34.8069 5.0756 36.3663L5.67685 37.6891C7.80953 42.381 11.6711 46.0685 16.4564 47.9825L17.2119 48.2848C18.3931 48.7572 19.6536 49 20.9258 49H25V40H23.1421C20.49 40 17.9464 38.9464 16.0711 37.0711L15.9289 36.9289C14.0536 35.0536 13 32.51 13 29.8579V19.5078C13 17.2371 13.7728 15.034 15.1913 13.2609L15.9976 12.253C17.8953 9.8809 20.7684 8.5 23.8062 8.5H32.6938C35.7316 8.5 38.6047 9.8809 40.5024 12.253L41.6526 13.6907C42.8584 15.198 43.6022 17.022 43.7943 18.9426L44 21H53V17.9258C53 16.6536 52.7572 15.3931 52.2848 14.2119L51.751 12.8775Z" fill="#0037C2"/>
</g>
<path d="M53 24H36.2088C34.7613 24 33.339 24.3777 32.0823 25.0958L32.0165 25.1334C31.0173 25.7044 30.1537 26.4849 29.4848 27.4213V27.4213C28.5191 28.7732 28 30.3931 28 32.0546V49H35V31.5H53V24Z" fill="#26BD04"/>
<g filter="url(#filter1_ii_6_14)">
<path d="M53 24H36.2088C34.7613 24 33.339 24.3777 32.0823 25.0958L32.0165 25.1334C31.0173 25.7044 30.1537 26.4849 29.4848 27.4213V27.4213C28.5191 28.7732 28 30.3931 28 32.0546V49H35V32.5C35 31.9477 35.4477 31.5 36 31.5H53V24Z" fill="#26BD04"/>
</g>
<g filter="url(#filter2_dii_6_14)">
<rect x="36" y="37.6569" width="8" height="17" rx="4" transform="rotate(-45 36 37.6569)" fill="#E11717"/>
</g>
<g filter="url(#filter3_dii_6_14)">
<path d="M64.4609 28.0352C64.4609 26.7344 64.7949 25.5566 65.4629 24.502C66.1426 23.4355 67.0449 22.5859 68.1699 21.9531C69.2949 21.3203 70.543 21.0039 71.9141 21.0039H77.7676C79.1387 21.0039 80.3867 21.3203 81.5117 21.9531C82.6484 22.5859 83.5508 23.4355 84.2188 24.502C84.8867 25.5566 85.2207 26.7344 85.2207 28.0352V38.9688C85.2207 40.1523 84.9336 41.248 84.3594 42.2559C83.7969 43.252 83.0234 44.0781 82.0391 44.7344C81.0664 45.3906 79.959 45.7949 78.7168 45.9473L80.9316 48.1621L78.3125 50.7988L73.5137 46H71.9141C70.543 46 69.2949 45.6836 68.1699 45.0508C67.0449 44.418 66.1426 43.5684 65.4629 42.502C64.7949 41.4355 64.4609 40.2578 64.4609 38.9688V28.0352ZM68.1699 38.9863C68.1699 39.9004 68.5332 40.6855 69.2598 41.3418C69.998 41.9863 70.8828 42.3086 71.9141 42.3086H77.7676C78.8105 42.3086 79.6953 41.9863 80.4219 41.3418C81.1484 40.6855 81.5117 39.9004 81.5117 38.9863V28.0176C81.5117 27.1035 81.1484 26.3242 80.4219 25.6797C79.6953 25.0234 78.8105 24.6953 77.7676 24.6953H71.9141C70.8828 24.6953 69.998 25.0234 69.2598 25.6797C68.5332 26.3242 68.1699 27.1035 68.1699 28.0176V38.9863ZM89.8086 27.7891H93.5176V39.373C93.5176 40.1934 93.7988 40.8906 94.3613 41.4648C94.9238 42.0391 95.5977 42.3262 96.3828 42.3262H102.834V27.7891H106.543V42.3086C106.543 43.3281 106.18 44.2012 105.453 44.9277C104.727 45.6426 103.842 46 102.799 46H96.3828C95.1758 46 94.0742 45.707 93.0781 45.1211C92.082 44.5234 91.2852 43.7266 90.6875 42.7305C90.1016 41.7344 89.8086 40.6328 89.8086 39.4258V27.7891ZM110.586 34.3281C110.586 33.1211 110.879 32.0254 111.465 31.041C112.062 30.0566 112.859 29.2715 113.855 28.6855C114.852 28.0879 115.953 27.7891 117.16 27.7891H127.32V46H123.611V31.498H117.16C116.375 31.498 115.701 31.7793 115.139 32.3418C114.576 32.8926 114.295 33.5664 114.295 34.3633V39.3906C114.295 40.1875 114.576 40.873 115.139 41.4473C115.701 42.0098 116.375 42.291 117.16 42.291H121.502V46H117.16C115.953 46 114.852 45.707 113.855 45.1211C112.859 44.5234 112.062 43.7266 111.465 42.7305C110.879 41.7344 110.586 40.6328 110.586 39.4258V34.3281ZM131.539 31.4805C131.539 30.4609 131.902 29.5938 132.629 28.8789C133.367 28.1523 134.252 27.7891 135.283 27.7891H141.699C142.906 27.7891 144.008 28.0879 145.004 28.6855C146 29.2715 146.791 30.0625 147.377 31.0586C147.975 32.0547 148.273 33.1562 148.273 34.3633V46H144.564V34.416C144.564 33.5957 144.283 32.8984 143.721 32.3242C143.17 31.75 142.496 31.4629 141.699 31.4629H135.248V46H131.539V31.4805ZM151.613 27.7891H153.986V21.0039H157.695V27.7891H163.303V31.498H157.695V40.832C157.695 41.2305 157.848 41.5762 158.152 41.8691C158.469 42.1504 158.844 42.291 159.277 42.291H163.303V46H159.225C158.264 46 157.385 45.7715 156.588 45.3145C155.803 44.8457 155.17 44.2246 154.689 43.4512C154.221 42.666 153.986 41.7988 153.986 40.8496V31.498H151.613V27.7891ZM167.363 20.7344C167.363 19.25 167.73 17.8984 168.465 16.6797C169.215 15.4609 170.215 14.4922 171.465 13.7734C172.73 13.0391 174.121 12.6719 175.637 12.6719H192.887V17.5938H175.637C174.73 17.5938 173.949 17.9141 173.293 18.5547C172.637 19.1953 172.309 19.9688 172.309 20.875V23.1719C172.309 24 172.637 24.7109 173.293 25.3047C173.949 25.8984 174.73 26.1953 175.637 26.1953H186.254C187.785 26.1953 189.176 26.5625 190.426 27.2969C191.676 28.0156 192.668 28.9922 193.402 30.2266C194.152 31.4453 194.527 32.7969 194.527 34.2812V37.9141C194.527 39.3984 194.152 40.7578 193.402 41.9922C192.668 43.2109 191.676 44.1875 190.426 44.9219C189.176 45.6406 187.785 46 186.254 46H167.387V41.0547H186.254C187.176 41.0547 187.957 40.75 188.598 40.1406C189.254 39.5156 189.582 38.7656 189.582 37.8906V34.3047C189.582 33.4297 189.254 32.6797 188.598 32.0547C187.957 31.4297 187.176 31.1172 186.254 31.1172H175.637C174.121 31.1172 172.73 30.7656 171.465 30.0625C170.215 29.3438 169.215 28.3828 168.465 27.1797C167.73 25.9766 167.363 24.6484 167.363 23.1953V20.7344ZM199.613 15.1094C199.613 14.2656 199.91 13.5469 200.504 12.9531C201.098 12.3594 201.816 12.0625 202.66 12.0625C203.504 12.0625 204.223 12.3594 204.816 12.9531C205.41 13.5469 205.707 14.2656 205.707 15.1094C205.707 15.9531 205.41 16.6719 204.816 17.2656C204.223 17.8594 203.504 18.1562 202.66 18.1562C201.816 18.1562 201.098 17.8594 200.504 17.2656C199.91 16.6719 199.613 15.9531 199.613 15.1094ZM200.176 21.7188H205.145V46H200.176V21.7188ZM210.535 30.4375C210.535 28.8281 210.926 27.3672 211.707 26.0547C212.504 24.7422 213.566 23.6953 214.895 22.9141C216.223 22.1172 217.691 21.7188 219.301 21.7188H227.902C229.262 21.7188 230.426 22.2031 231.395 23.1719C232.363 24.1406 232.848 25.3047 232.848 26.6641V46.2812C232.848 47.8906 232.449 49.3594 231.652 50.6875C230.871 52.0156 229.816 53.0703 228.488 53.8516C227.16 54.6484 225.691 55.0469 224.082 55.0469H212.105V50.1016H224.012C225.09 50.1016 226.004 49.7266 226.754 48.9766C227.52 48.2422 227.902 47.3516 227.902 46.3047V26.6641H219.301C218.254 26.6641 217.355 27.0391 216.605 27.7891C215.855 28.5234 215.48 29.4219 215.48 30.4844V37.2109C215.48 38.2578 215.855 39.1641 216.605 39.9297C217.355 40.6797 218.254 41.0547 219.301 41.0547H225.09V46H219.301C217.691 46 216.223 45.6094 214.895 44.8281C213.566 44.0312 212.504 42.9766 211.707 41.6641C210.926 40.3359 210.535 38.8672 210.535 37.2578V30.4375ZM238.473 26.6406C238.473 25.2812 238.957 24.125 239.926 23.1719C240.91 22.2031 242.09 21.7188 243.465 21.7188H252.02C253.629 21.7188 255.098 22.1172 256.426 22.9141C257.754 23.6953 258.809 24.75 259.59 26.0781C260.387 27.4062 260.785 28.875 260.785 30.4844V46H255.84V30.5547C255.84 29.4609 255.465 28.5312 254.715 27.7656C253.98 27 253.082 26.6172 252.02 26.6172H243.418V46H238.473V26.6406ZM266.176 30.4375C266.176 28.8281 266.566 27.3672 267.348 26.0547C268.145 24.7422 269.207 23.6953 270.535 22.9141C271.863 22.1172 273.332 21.7188 274.941 21.7188H288.488V46H283.543V26.6641H274.941C273.895 26.6641 272.996 27.0391 272.246 27.7891C271.496 28.5234 271.121 29.4219 271.121 30.4844V37.1875C271.121 38.25 271.496 39.1641 272.246 39.9297C272.996 40.6797 273.895 41.0547 274.941 41.0547H280.73V46H274.941C273.332 46 271.863 45.6094 270.535 44.8281C269.207 44.0312 268.145 42.9688 267.348 41.6406C266.566 40.3125 266.176 38.8438 266.176 37.2344V30.4375ZM294.113 12.6719H299.059V46H294.113V12.6719Z" fill="#0037C2"/>
</g>
<defs>
<filter id="filter0_dii_6_14" x="-1" y="0" width="58" height="57" filterUnits="userSpaceOnUse" color-interpolation-filters="sRGB">
<feFlood flood-opacity="0" result="BackgroundImageFix"/>
<feColorMatrix in="SourceAlpha" type="matrix" values="0 0 0 0 0 0 0 0 0 0 0 0 0 0 0 0 0 0 127 0" result="hardAlpha"/>
<feOffset dy="4"/>
<feGaussianBlur stdDeviation="2"/>
<feComposite in2="hardAlpha" operator="out"/>
<feColorMatrix type="matrix" values="0 0 0 0 0 0 0 0 0 0 0 0 0 0 0 0 0 0 0.25 0"/>
<feBlend mode="normal" in2="BackgroundImageFix" result="effect1_dropShadow_6_14"/>
<feBlend mode="normal" in="SourceGraphic" in2="effect1_dropShadow_6_14" result="shape"/>
<feColorMatrix in="SourceAlpha" type="matrix" values="0 0 0 0 0 0 0 0 0 0 0 0 0 0 0 0 0 0 127 0" result="hardAlpha"/>
<feOffset dx="-5" dy="5"/>
<feGaussianBlur stdDeviation="7.5"/>
<feComposite in2="hardAlpha" operator="arithmetic" k2="-1" k3="1"/>
<feColorMatrix type="matrix" values="0 0 0 0 0.0633333 0 0 0 0 0.0580555 0 0 0 0 0.0580555 0 0 0 0.58 0"/>
<feBlend mode="normal" in2="shape" result="effect2_innerShadow_6_14"/>
<feColorMatrix in="SourceAlpha" type="matrix" values="0 0 0 0 0 0 0 0 0 0 0 0 0 0 0 0 0 0 127 0" result="hardAlpha"/>
<feOffset dx="-5" dy="5"/>
<feGaussianBlur stdDeviation="2.5"/>
<feComposite in2="hardAlpha" operator="arithmetic" k2="-1" k3="1"/>
<feColorMatrix type="matrix" values="0 0 0 0 0.241674 0 0 0 0 0.147408 0 0 0 0 0.775833 0 0 0 0.69 0"/>
<feBlend mode="normal" in2="effect2_innerShadow_6_14" result="effect3_innerShadow_6_14"/>
</filter>
<filter id="filter1_ii_6_14" x="28" y="24" width="28" height="28" filterUnits="userSpaceOnUse" color-interpolation-filters="sRGB">
<feFlood flood-opacity="0" result="BackgroundImageFix"/>
<feBlend mode="normal" in="SourceGraphic" in2="BackgroundImageFix" result="shape"/>
<feColorMatrix in="SourceAlpha" type="matrix" values="0 0 0 0 0 0 0 0 0 0 0 0 0 0 0 0 0 0 127 0" result="hardAlpha"/>
<feOffset dx="4" dy="4"/>
<feGaussianBlur stdDeviation="1.5"/>
<feComposite in2="hardAlpha" operator="arithmetic" k2="-1" k3="1"/>
<feColorMatrix type="matrix" values="0 0 0 0 0.16 0 0 0 0 0.0909331 0 0 0 0 0.0909331 0 0 0 0.25 0"/>
<feBlend mode="normal" in2="shape" result="effect1_innerShadow_6_14"/>
<feColorMatrix in="SourceAlpha" type="matrix" values="0 0 0 0 0 0 0 0 0 0 0 0 0 0 0 0 0 0 127 0" result="hardAlpha"/>
<feOffset dx="3" dy="4"/>
<feGaussianBlur stdDeviation="1"/>
<feComposite in2="hardAlpha" operator="arithmetic" k2="-1" k3="1"/>
<feColorMatrix type="matrix" values="0 0 0 0 0.105833 0 0 0 0 0.0102306 0 0 0 0 0.0102306 0 0 0 0.25 0"/>
<feBlend mode="normal" in2="effect1_innerShadow_6_14" result="effect2_innerShadow_6_14"/>
</filter>
<filter id="filter2_dii_6_14" x="24.6569" y="20.6569" width="44.364" height="44.364" filterUnits="userSpaceOnUse" color-interpolation-filters="sRGB">
<feFlood flood-opacity="0" result="BackgroundImageFix"/>
<feColorMatrix in="SourceAlpha" type="matrix" values="0 0 0 0 0 0 0 0 0 0 0 0 0 0 0 0 0 0 127 0" result="hardAlpha"/>
<feOffset dx="2" dy="2"/>
<feGaussianBlur stdDeviation="7.5"/>
<feComposite in2="hardAlpha" operator="out"/>
<feColorMatrix type="matrix" values="0 0 0 0 0 0 0 0 0 0 0 0 0 0 0 0 0 0 0.25 0"/>
<feBlend mode="normal" in2="BackgroundImageFix" result="effect1_dropShadow_6_14"/>
<feBlend mode="normal" in="SourceGraphic" in2="effect1_dropShadow_6_14" result="shape"/>
<feColorMatrix in="SourceAlpha" type="matrix" values="0 0 0 0 0 0 0 0 0 0 0 0 0 0 0 0 0 0 127 0" result="hardAlpha"/>
<feOffset dx="-2" dy="2"/>
<feGaussianBlur stdDeviation="1"/>
<feComposite in2="hardAlpha" operator="arithmetic" k2="-1" k3="1"/>
<feColorMatrix type="matrix" values="0 0 0 0 0.1625 0 0 0 0 0.065 0 0 0 0 0.065 0 0 0 0.25 0"/>
<feBlend mode="normal" in2="shape" result="effect2_innerShadow_6_14"/>
<feColorMatrix in="SourceAlpha" type="matrix" values="0 0 0 0 0 0 0 0 0 0 0 0 0 0 0 0 0 0 127 0" result="hardAlpha"/>
<feOffset dx="2" dy="-2"/>
<feGaussianBlur stdDeviation="0.5"/>
<feComposite in2="hardAlpha" operator="arithmetic" k2="-1" k3="1"/>
<feColorMatrix type="matrix" values="0 0 0 0 0.169167 0 0 0 0 0.0724597 0 0 0 0 0.0724597 0 0 0 0.25 0"/>
<feBlend mode="normal" in2="effect2_innerShadow_6_14" result="effect3_innerShadow_6_14"/>
</filter>
<filter id="filter3_dii_6_14" x="60.4609" y="10.0625" width="242.598" height="52.9844" filterUnits="userSpaceOnUse" color-interpolation-filters="sRGB">
<feFlood flood-opacity="0" result="BackgroundImageFix"/>
<feColorMatrix in="SourceAlpha" type="matrix" values="0 0 0 0 0 0 0 0 0 0 0 0 0 0 0 0 0 0 127 0" result="hardAlpha"/>
<feOffset dy="4"/>
<feGaussianBlur stdDeviation="2"/>
<feComposite in2="hardAlpha" operator="out"/>
<feColorMatrix type="matrix" values="0 0 0 0 0 0 0 0 0 0 0 0 0 0 0 0 0 0 0.25 0"/>
<feBlend mode="normal" in2="BackgroundImageFix" result="effect1_dropShadow_6_14"/>
<feBlend mode="normal" in="SourceGraphic" in2="effect1_dropShadow_6_14" result="shape"/>
<feColorMatrix in="SourceAlpha" type="matrix" values="0 0 0 0 0 0 0 0 0 0 0 0 0 0 0 0 0 0 127 0" result="hardAlpha"/>
<feOffset dx="2" dy="-2"/>
<feGaussianBlur stdDeviation="1"/>
<feComposite in2="hardAlpha" operator="arithmetic" k2="-1" k3="1"/>
<feColorMatrix type="matrix" values="0 0 0 0 0.916667 0 0 0 0 0.916667 0 0 0 0 0.916667 0 0 0 0.25 0"/>
<feBlend mode="normal" in2="shape" result="effect2_innerShadow_6_14"/>
<feColorMatrix in="SourceAlpha" type="matrix" values="0 0 0 0 0 0 0 0 0 0 0 0 0 0 0 0 0 0 127 0" result="hardAlpha"/>
<feOffset dx="-2" dy="2"/>
<feGaussianBlur stdDeviation="1.05"/>
<feComposite in2="hardAlpha" operator="arithmetic" k2="-1" k3="1"/>
<feColorMatrix type="matrix" values="0 0 0 0 0.616667 0 0 0 0 0.587889 0 0 0 0 0.587889 0 0 0 0.25 0"/>
<feBlend mode="normal" in2="effect2_innerShadow_6_14" result="effect3_innerShadow_6_14"/>
</filter>
</defs>
</svg>
